<?xml version="1.0" encoding="utf-8"?>
<!-- Generator: Adobe Illustrator 24.2.3, SVG Export Plug-In . SVG Version: 6.00 Build 0)  -->
<svg version="1.1" id="Layer_1" xmlns="http://www.w3.org/2000/svg" xmlns:xlink="http://www.w3.org/1999/xlink" x="0px" y="0px" viewBox="0 0 19.94 25.84" style="enable-background:new 0 0 19.94 25.84;" xml:space="preserve">

    <path id="Path_32" class="st0" d="M18.64,11.67H4.27l9.54-9.54c0.49-0.49,0.49-1.28,0-1.77s-1.28-0.49-1.77,0L0.37,12.04
	c-0.49,0.49-0.49,1.28,0,1.77c0,0,0,0,0,0l11.67,11.67c0.49,0.49,1.28,0.49,1.77,0s0.49-1.28,0-1.77l-9.54-9.54h14.37
	c0.69,0.03,1.27-0.51,1.3-1.2c0.03-0.69-0.51-1.27-1.2-1.3C18.7,11.67,18.67,11.67,18.64,11.67z" />
</svg>