<svg width="34" height="33" viewBox="0 0 34 33" fill="none" xmlns="http://www.w3.org/2000/svg">
<path d="M30.3251 0H25.5664C25.0163 0 24.5703 0.432867 24.5703 0.966797C24.5703 1.50073 25.0163 1.93359 25.5664 1.93359H30.3251C31.2529 1.93359 32.0078 2.6663 32.0078 3.5669V8.18555C32.0078 8.71948 32.4538 9.15234 33.0039 9.15234C33.554 9.15234 34 8.71948 34 8.18555V3.5669C34 1.60011 32.3514 0 30.3251 0V0Z" fill="black"/>
<path d="M0.996094 9.15234C1.5462 9.15234 1.99219 8.71948 1.99219 8.18555V3.5669C1.99219 2.6663 2.74709 1.93359 3.67492 1.93359H8.43359C8.9837 1.93359 9.42969 1.50073 9.42969 0.966797C9.42969 0.432867 8.9837 0 8.43359 0H3.67492C1.6486 0 0 1.60011 0 3.5669V8.18555C0 8.71948 0.445984 9.15234 0.996094 9.15234Z" fill="black"/>
<path d="M8.43359 31.0664H3.67492C2.74709 31.0664 1.99219 30.3337 1.99219 29.4331V24.8145C1.99219 24.2805 1.5462 23.8477 0.996094 23.8477C0.445984 23.8477 0 24.2805 0 24.8145V29.4331C0 31.3999 1.6486 33 3.67492 33H8.43359C8.9837 33 9.42969 32.5671 9.42969 32.0332C9.42969 31.4993 8.9837 31.0664 8.43359 31.0664Z" fill="black"/>
<path d="M33.0039 23.8477C32.4538 23.8477 32.0078 24.2805 32.0078 24.8145V29.4331C32.0078 30.3337 31.2529 31.0664 30.3251 31.0664H25.5664C25.0163 31.0664 24.5703 31.4993 24.5703 32.0332C24.5703 32.5671 25.0163 33 25.5664 33H30.3251C32.3515 33 34 31.3999 34 29.4331V24.8145C34 24.2805 33.554 23.8477 33.0039 23.8477Z" fill="black"/>
<path d="M22.6872 7.08984H25.8465C26.2779 7.08984 26.6289 7.43048 26.6289 7.84923V10.9155C26.6289 11.4495 27.0749 11.8823 27.625 11.8823C28.1751 11.8823 28.6211 11.4495 28.6211 10.9155V7.84923C28.6211 6.36429 27.3763 5.15625 25.8465 5.15625H22.6872C22.1371 5.15625 21.6911 5.58912 21.6911 6.12305C21.6911 6.65698 22.1371 7.08984 22.6872 7.08984Z" fill="black"/>
<path d="M5.37891 7.84923V10.9155C5.37891 11.4495 5.82489 11.8823 6.375 11.8823C6.92511 11.8823 7.37109 11.4495 7.37109 10.9155V7.84923C7.37109 7.43048 7.72212 7.08984 8.15349 7.08984H11.3128C11.8629 7.08984 12.3089 6.65698 12.3089 6.12305C12.3089 5.58912 11.8629 5.15625 11.3128 5.15625H8.15349C6.62362 5.15625 5.37891 6.36429 5.37891 7.84923Z" fill="black"/>
<path d="M11.3128 25.7812H8.15349C7.72205 25.7812 7.37109 25.4406 7.37109 25.0218V21.9555C7.37109 21.4216 6.92511 20.9887 6.375 20.9887C5.82489 20.9887 5.37891 21.4216 5.37891 21.9555V25.0218C5.37891 26.5068 6.62362 27.7148 8.15349 27.7148H11.3128C11.8629 27.7148 12.3089 27.2819 12.3089 26.748C12.3089 26.2141 11.8629 25.7812 11.3128 25.7812Z" fill="black"/>
<path d="M28.6211 25.0218V21.9555C28.6211 21.4216 28.1751 20.9887 27.625 20.9887C27.0749 20.9887 26.6289 21.4216 26.6289 21.9555V25.0218C26.6289 25.4406 26.2778 25.7812 25.8465 25.7812H22.6872C22.1371 25.7812 21.6911 26.2141 21.6911 26.748C21.6911 27.2819 22.1371 27.7148 22.6872 27.7148H25.8465C27.3763 27.7148 28.6211 26.5068 28.6211 25.0218Z" fill="black"/>
<path d="M0.0664062 16.5C0.0664062 17.0339 0.512391 17.4668 1.0625 17.4668H32.9375C33.4876 17.4668 33.9336 17.0339 33.9336 16.5C33.9336 15.9661 33.4876 15.5332 32.9375 15.5332H1.0625C0.512391 15.5332 0.0664062 15.9661 0.0664062 16.5Z" fill="black"/>
</svg>
